.
..............................Site Info...........................

 -   http://www.scenetime.com  *_*    

Scenetime .Always on time . friendly onlinetorrent community ..

     We care to share . Join us on  http://www.scenetime.com 

    Be the first to get new release at  http://www.scenetime.com

        Seed back for speed


...................................NFO:.................................................[img]http://img571.imageshack.us/img571/7510/402343bas1nu8x.jpg[/img]
[img]http://img220.imageshack.us/img220/6882/thetallmanposterwaterma.jpg[/img]


Genre: Horror | Mystery | Thriller
Language:English
IMDb:http://www.imdb.com/title/tt1658837/
Source:HDRip HS Thanks
Encoder:Tony

Format                                   :
Format/Info                              :
File size                                : 866 MiB
Duration                                 : 1h 45mnbit rate                         : 1 143 Kbps

ID                                       : 0
Format                                   : MPEG-4
Format profile                           :Simple@L5
Format settings,                   : 1
Format settings, QPel                    : No
Format settings, GMC                     : No warppoints
Format settings, Matrix                  : Default (H.263)
Codec ID                                 :
Codec ID/Hint                            :
Duration                                 : 1h 45mn
Bit rate                                 : 910 Kbps
Width                                    : 640 pixels
Height                                   : 264 pixels
Display aspect ratio                     : 2.40:1
Frame rate                               : 23.976 fps
Color space                              :
Chroma subsampling                       : 4:2:0
Bit depth                                : 8 bits
Scan type                                :
Compression mode                         : Lossy
Bits/(Pixel*Frame)                       : 0.225
Stream size                              : 690 MiB (80%)
Writing library                          :1.2.1 (UTC 2008-12-04)

Audio
ID                                       : 1
Format                                   : AC-3
Format/Info                              : Audio Coding 3
Mode extension                           : CM (complete main)
Codec ID                                 : 2000
Duration                                 : 1h 45mn
Bit rate mode                            : Constant
Bit rate                                 : 224 Kbps
Channel(s)                               : 2 channels
Channel positions                        : Front: L R
Sampling rate                            : 48.0 KHz
Bit depth                                : 16 bits
Compression mode                         : Lossy
Stream size                              : 170 MiB (20%)
Alignment                                : Aligned onduration                     : 42 ms (1.00frame)preload duration             : 512 ms

    
Plot:
  When her child goes missing, a mother looks tothe legend of the Tall Man, an entity who allegedly abducts children. 




Greets:
SAFCuk009,LU,TheFalcon007,MYSTiC,PrisM,Noir,WBZ,LAP,Rx,Kingdom,SAFCuk009+Fabreezy,HDLiTE,TWiZTED,ETRG.ELEKTRI4KA,MAGNAT,CM8
                And to all the other p2p grps past and present